<?xml version="1.0" standalone="no"?>
<!DOCTYPE svg PUBLIC "-//W3C//DTD SVG 20010904//EN"
 "http://www.w3.org/TR/2001/REC-SVG-20010904/DTD/svg10.dtd">
<svg version="1.0" xmlns="http://www.w3.org/2000/svg"
 width="885.000000pt" height="961.000000pt" viewBox="0 0 885.000000 961.000000"
 preserveAspectRatio="xMidYMid meet">

<g transform="translate(0.000000,961.000000) scale(0.100000,-0.100000)"
fill="#FFFFFF" stroke="none">
<path d="M5587 9363 c-4 -3 -7 -78 -7 -165 l0 -158 35 0 35 0 2 68 c1 37 2 86
1 110 0 23 1 42 3 42 1 0 10 -25 18 -55 9 -30 23 -80 32 -111 l16 -55 41 3 42
3 22 75 c38 134 42 136 42 23 l1 -103 40 0 41 0 -3 158 -3 157 -51 3 c-48 3
-52 1 -62 -25 -17 -44 -42 -123 -42 -133 0 -5 -5 -21 -10 -36 -10 -26 -11 -26
-23 -8 -7 10 -21 55 -31 99 -22 98 -36 115 -91 115 -23 0 -45 -3 -48 -7z"/>
<path d="M5245 9319 c-97 -22 -88 -13 -81 -82 8 -75 39 -234 48 -243 4 -3 46
-1 93 6 l86 12 -3 32 c-3 31 -3 31 -54 28 -48 -2 -52 -1 -58 24 -8 32 -11 29
39 41 36 8 40 12 40 38 0 30 0 30 -52 27 -51 -3 -53 -2 -53 22 0 21 6 26 38
32 49 9 60 19 54 49 -5 28 -24 30 -97 14z"/>
<path d="M6212 9307 c-6 -6 -20 -62 -32 -122 -33 -163 -33 -164 -20 -180 14
-17 56 -20 65 -5 13 20 65 294 58 301 -17 14 -61 18 -71 6z"/>
<path d="M6519 9193 c-6 -21 -15 -42 -19 -48 -4 -5 -17 -39 -30 -73 -29 -81
-21 -122 32 -165 29 -23 51 -31 91 -35 78 -6 103 19 157 155 41 102 42 107 24
120 -11 8 -30 13 -44 11 -21 -3 -28 -14 -50 -78 -46 -135 -67 -158 -119 -130
-31 16 -27 70 14 160 41 90 41 96 16 110 -38 20 -59 12 -72 -27z"/>
<path d="M4810 9183 c-47 -8 -109 -35 -115 -51 -5 -13 30 -111 95 -269 12 -28
30 -29 60 -5 23 18 23 19 7 67 -20 58 -20 55 -3 55 8 0 37 -18 66 -39 49 -37
54 -39 83 -26 17 7 33 18 35 23 2 6 -24 29 -58 52 -54 37 -59 43 -49 62 17 31
4 100 -21 120 -21 17 -47 20 -100 11z m46 -90 c5 -19 2 -30 -11 -40 -27 -19
-32 -17 -44 18 -13 38 -7 49 24 49 18 0 26 -7 31 -27z"/>
<path d="M7005 8978 c-88 -122 -145 -209 -145 -221 0 -22 27 -39 48 -33 11 4
44 42 73 86 29 44 54 80 56 80 1 0 -13 -45 -33 -101 -19 -55 -32 -109 -29
-119 3 -10 19 -23 35 -30 29 -12 33 -10 103 47 103 85 105 84 38 -8 -60 -85
-65 -108 -26 -123 27 -10 41 3 105 99 34 52 68 99 76 106 23 19 16 54 -16 77
-16 12 -37 22 -47 22 -10 0 -54 -29 -98 -65 -44 -35 -81 -62 -83 -60 -2 2 10
46 27 98 16 51 28 103 25 114 -6 21 -52 53 -78 53 -8 0 -22 -10 -31 -22z"/>
<path d="M4356 8957 c-87 -48 -88 -54 -35 -134 25 -37 62 -94 83 -125 40 -63
53 -69 81 -38 18 20 18 22 -2 64 l-21 43 39 39 c42 41 48 66 28 123 -12 34
-53 61 -91 61 -13 0 -50 -15 -82 -33z m94 -66 c11 -22 5 -47 -15 -55 -21 -8
-58 47 -43 62 18 18 46 14 58 -7z"/>
<path d="M7638 8356 c-44 -16 -90 -52 -112 -88 -19 -31 -21 -113 -2 -146 9
-17 10 -35 3 -71 -9 -39 -7 -51 8 -74 30 -46 46 -36 57 38 3 17 10 20 50 17
78 -6 174 60 199 136 19 58 -22 139 -92 181 -39 24 -60 25 -111 7z m109 -98
c28 -27 29 -48 2 -82 -76 -97 -215 -54 -146 45 19 27 73 58 101 59 11 0 30
-10 43 -22z"/>
<path d="M2720 8259 c-379 -10 -655 -42 -904 -105 -233 -60 -373 -140 -426
-245 -27 -51 -42 -168 -35 -254 24 -275 73 -656 115 -895 5 -30 19 -113 30
-185 26 -163 62 -379 101 -605 17 -96 37 -218 45 -270 8 -52 23 -144 34 -205
33 -180 48 -265 64 -365 9 -52 32 -194 51 -315 46 -285 92 -441 192 -655 153
-326 331 -488 608 -555 39 -10 89 -22 113 -27 28 -7 42 -16 42 -27 0 -9 -16
-68 -36 -131 -19 -63 -39 -128 -44 -145 -4 -16 -29 -97 -55 -180 -25 -82 -61
-202 -80 -265 -19 -63 -62 -205 -96 -315 -34 -110 -64 -216 -66 -236 -6 -44
16 -69 58 -69 36 0 60 26 76 83 6 23 41 139 78 257 37 118 73 238 80 265 8 28
44 147 80 265 36 118 77 253 91 300 43 148 47 161 53 164 3 2 47 0 96 -4 50
-5 176 -11 280 -15 105 -4 192 -8 195 -10 10 -5 336 -15 710 -20 212 -4 397
-8 412 -11 30 -6 26 3 88 -214 17 -58 44 -151 61 -207 32 -112 32 -116 -16
-258 -8 -22 -35 -107 -60 -190 -26 -82 -60 -190 -76 -239 -35 -108 -36 -126
-5 -155 46 -44 95 -9 120 86 7 26 34 116 60 198 26 83 50 161 54 174 13 44 30
35 47 -26 9 -32 20 -69 24 -83 5 -14 15 -50 24 -80 65 -221 82 -265 109 -278
23 -11 32 -10 58 3 39 20 39 49 0 174 -30 94 -97 314 -140 460 -30 100 -29
127 15 261 79 242 93 286 100 317 3 17 12 36 18 41 7 6 219 11 557 11 300 1
678 5 840 9 162 4 303 6 313 3 9 -2 20 -15 23 -30 3 -14 9 -37 14 -51 5 -14
48 -158 95 -320 48 -162 117 -392 152 -510 36 -118 72 -236 79 -262 23 -86 35
-103 75 -106 72 -6 84 36 45 158 -13 41 -33 107 -44 145 -49 166 -235 788
-264 879 -25 81 -28 100 -17 107 8 5 23 7 34 5 30 -7 382 31 442 48 175 48
249 142 273 344 13 111 2 281 -26 391 -32 125 -119 252 -217 319 -53 35 -170
84 -265 112 -131 38 -193 119 -193 254 0 91 9 125 67 263 82 194 88 216 88
343 1 106 -2 119 -28 172 -36 73 -97 129 -172 158 -58 23 -66 23 -464 24
l-405 1 1 25 c0 14 1 89 2 168 l2 142 343 0 c417 0 393 -8 383 117 -3 47 -13
113 -20 146 -8 34 -22 101 -30 150 -29 164 -47 262 -61 332 -7 39 -23 122 -34
185 -12 63 -25 135 -31 160 -5 25 -12 63 -15 85 -7 44 -27 145 -51 260 -9 42
-22 82 -31 90 -12 13 -87 15 -521 15 -279 0 -512 -4 -518 -8 -20 -13 -31 -46
-48 -142 -27 -160 -46 -262 -62 -331 -7 -37 -14 -77 -14 -88 0 -12 -6 -50 -14
-84 -8 -34 -22 -105 -31 -157 -9 -52 -25 -140 -36 -195 -11 -55 -26 -138 -35
-185 -9 -47 -22 -115 -30 -152 -19 -92 -18 -162 3 -179 15 -13 82 -15 676 -19
l47 0 0 -164 c0 -119 -3 -166 -12 -172 -7 -5 -312 -8 -680 -6 l-668 2 -4 23
c-2 12 -12 69 -21 127 -36 238 -51 327 -90 560 -8 47 -20 114 -25 150 -21 134
-60 350 -75 416 -94 421 -151 580 -264 732 -95 129 -281 250 -431 281 -156 33
-560 50 -950 40z m804 -148 c177 -21 311 -83 421 -196 174 -177 241 -407 399
-1360 60 -360 98 -598 110 -685 2 -19 14 -89 25 -155 11 -66 45 -284 76 -485
48 -323 57 -367 76 -382 26 -22 48 -23 77 -2 18 12 22 25 22 68 0 29 -5 78
-10 107 -6 30 -17 99 -25 154 -8 55 -21 145 -29 200 -8 55 -22 145 -30 200 -8
55 -20 121 -25 147 -19 85 -78 78 643 78 352 0 651 -3 663 -6 l22 -6 1 -447
c0 -441 0 -446 21 -463 29 -25 56 -22 85 7 l24 24 0 428 c0 236 0 435 0 444 0
14 40 17 373 23 321 6 379 5 423 -8 103 -32 143 -92 144 -212 0 -77 -13 -120
-98 -334 -80 -200 -89 -338 -31 -452 11 -22 19 -42 16 -44 -6 -6 -1025 -23
-1807 -29 -382 -3 -987 -10 -1345 -16 -707 -10 -717 -10 -802 44 -86 55 -153
160 -187 292 -12 50 -180 1036 -417 2460 -27 165 -55 312 -61 328 -19 48 -95
49 -117 1 -9 -21 -8 -47 8 -138 11 -61 95 -556 186 -1101 256 -1526 263 -1565
288 -1640 64 -188 153 -292 302 -355 59 -24 65 -25 305 -25 135 0 520 3 857 7
636 8 713 5 851 -32 99 -27 165 -62 227 -121 106 -100 139 -201 139 -434 1
-175 -8 -220 -53 -268 -33 -37 -72 -57 -141 -74 -111 -28 -949 -39 -1385 -18
-49 2 -171 7 -270 10 -701 23 -974 80 -1143 239 -188 178 -338 523 -402 926
-17 105 -51 309 -75 453 -271 1610 -301 1795 -341 2150 -45 407 -32 469 111
540 66 33 129 54 253 83 154 36 349 59 742 88 109 7 814 -3 904 -13z m2911
-476 c21 -88 49 -245 44 -249 -2 -2 -114 -6 -248 -10 -134 -3 -248 -9 -253
-12 -28 -17 43 -26 265 -31 133 -3 245 -9 250 -12 6 -6 26 -102 44 -218 l5
-33 -163 -2 c-90 -1 -173 -3 -184 -4 -11 -1 -53 -2 -92 -3 -54 -1 -73 -4 -73
-15 0 -17 110 -26 336 -26 134 0 174 -3 183 -14 6 -8 18 -51 26 -97 7 -46 17
-98 20 -115 l7 -31 -280 -6 c-154 -4 -290 -11 -303 -15 -51 -19 16 -27 276
-30 149 -1 280 -5 292 -7 25 -6 36 -37 53 -150 5 -38 13 -88 16 -110 l6 -41
-655 -3 c-446 -2 -657 1 -661 8 -6 10 3 72 40 266 8 44 21 114 28 155 30 163
37 198 50 265 8 39 22 111 31 160 9 50 22 124 30 165 8 41 21 113 30 160 8 47
21 90 29 95 8 6 166 10 426 10 l414 0 11 -50z m655 -3034 c117 -22 168 -40
251 -89 89 -51 84 -59 -34 -66 -56 -3 -358 -8 -672 -11 -560 -6 -640 -9 -650
-25 -10 -15 131 -20 800 -26 374 -3 685 -7 692 -9 12 -4 46 -87 57 -142 7 -30
6 -32 -26 -37 -18 -3 -322 -8 -676 -11 -623 -5 -758 -10 -767 -25 -11 -18 269
-27 1055 -35 l425 -3 3 -91 3 -91 -233 0 c-676 -1 -1254 -15 -1263 -30 -12
-20 185 -27 934 -36 l553 -7 -5 -34 c-14 -81 -67 -128 -184 -158 -154 -41
-811 -67 -1555 -63 l-437 3 35 55 c53 83 58 115 58 320 -1 217 -14 282 -78
404 -30 58 -58 93 -104 134 -45 40 -59 58 -50 63 7 5 202 9 433 10 231 1 519
4 640 8 526 15 683 13 795 -8z m-2189 -1121 c11 0 19 -6 19 -14 0 -14 -51
-184 -72 -238 -13 -36 -34 -26 -42 20 -4 20 -18 76 -33 124 -34 114 -30 123
49 114 33 -3 69 -6 79 -6z"/>
<path d="M3085 7305 c-14 -13 -25 -29 -25 -36 0 -47 44 -257 57 -271 21 -24
75 -23 96 0 22 24 21 42 -3 182 -15 90 -24 119 -41 133 -29 24 -55 21 -84 -8z"/>
<path d="M3687 7319 c-34 -20 -36 -50 -13 -183 24 -138 34 -156 87 -156 29 0
71 41 64 63 -2 7 -11 64 -21 127 -14 91 -22 119 -40 137 -25 25 -49 28 -77 12z"/>
<path d="M3241 6194 c-12 -15 -21 -31 -21 -37 0 -43 46 -255 58 -269 24 -28
78 -23 99 8 16 25 16 33 -5 158 -17 107 -25 134 -43 149 -31 25 -64 21 -88 -9z"/>
<path d="M3842 6204 c-28 -19 -29 -68 -3 -208 19 -106 32 -126 81 -126 32 0
63 30 62 62 0 13 -8 72 -18 133 -23 143 -59 184 -122 139z"/>
<path d="M7895 7890 c-119 -52 -139 -75 -133 -153 4 -55 8 -63 47 -100 40 -37
46 -39 89 -34 45 5 183 58 210 79 17 14 15 43 -4 59 -17 14 -64 2 -161 -42
-69 -31 -113 -19 -113 31 0 35 18 49 120 91 98 41 101 43 88 80 -13 39 -32 37
-143 -11z"/>
<path d="M7887 7403 c-3 -5 -2 -24 2 -43 6 -29 12 -35 39 -41 41 -8 39 -5 47
-61 6 -42 5 -48 -19 -63 -27 -18 -35 -57 -16 -85 8 -13 21 -9 82 24 40 22 103
56 140 75 37 20 69 44 71 53 6 21 -8 87 -20 98 -4 4 -62 15 -128 24 -66 9
-136 19 -156 22 -21 3 -39 2 -42 -3z m258 -103 c27 0 23 -3 -30 -29 -33 -15
-63 -26 -67 -24 -5 2 -8 18 -8 34 0 30 1 30 38 25 20 -3 51 -5 67 -6z"/>
<path d="M7962 6918 c-14 -14 -17 -175 -3 -196 4 -8 19 -12 32 -10 22 3 24 8
27 66 l3 62 118 0 c130 0 145 6 139 57 l-3 28 -150 3 c-109 2 -154 -1 -163
-10z"/>
<path d="M7937 6523 c-2 -5 -7 -20 -11 -35 -5 -20 -2 -30 11 -36 26 -14 277
-46 297 -39 19 7 21 50 4 65 -7 5 -35 13 -63 17 -27 4 -85 13 -129 21 -90 16
-103 17 -109 7z"/>
<path d="M7862 6181 c-23 -14 -10 -63 18 -72 14 -4 65 -20 113 -35 l88 -28 -6
-37 c-6 -32 -3 -39 15 -49 12 -7 26 -8 30 -3 14 15 71 205 66 219 -3 8 -17 14
-31 14 -20 0 -29 -7 -36 -30 -6 -16 -14 -30 -19 -30 -4 0 -50 13 -101 30 -100
32 -117 34 -137 21z"/>
<path d="M1277 5803 c-126 -136 -182 -210 -299 -391 -129 -200 -248 -467 -319
-717 -52 -185 -66 -545 -29 -739 58 -298 183 -503 392 -643 81 -53 169 -89
258 -104 36 -6 71 -16 78 -22 9 -7 12 -42 10 -131 l-3 -121 -272 -3 -272 -2
-21 -27 c-21 -27 -20 -56 4 -80 8 -9 164 -13 613 -15 331 -2 605 -6 609 -10 8
-8 -15 -88 -25 -89 -3 0 -130 -2 -281 -4 -315 -5 -388 -11 -371 -28 9 -9 101
-13 314 -15 166 -2 307 -5 314 -7 9 -3 7 -19 -8 -59 -10 -31 -19 -62 -19 -70
0 -30 -29 -34 -292 -38 -244 -3 -292 -7 -276 -24 3 -3 123 -8 267 -11 l261 -6
0 -32 c0 -18 -9 -44 -20 -58 l-20 -26 -421 0 c-271 -1 -427 -4 -439 -11 -28
-15 -36 -55 -16 -85 l16 -25 474 0 c442 0 474 1 489 18 9 10 34 74 57 142 22
69 45 139 50 155 60 174 110 331 110 344 0 9 -7 27 -16 39 -15 22 -15 22 -345
22 l-329 0 0 135 0 135 28 6 c112 27 270 135 357 244 108 135 203 310 190 351
-10 30 -49 51 -79 43 -21 -5 -35 -25 -72 -99 -77 -158 -221 -317 -346 -381
-85 -43 -83 -47 -94 190 -5 127 -9 151 -25 167 -23 23 -58 24 -84 5 -22 -16
-22 -22 -15 -248 2 -75 1 -140 -3 -144 -13 -13 -128 16 -205 52 -60 27 -91 51
-165 127 -101 102 -162 204 -198 334 -28 96 -59 305 -59 393 0 86 33 351 49
393 6 16 11 37 11 48 0 40 110 321 179 455 63 126 147 262 227 369 82 112 129
165 144 165 9 0 33 -22 54 -50 58 -76 114 -130 135 -130 29 0 71 39 71 66 0
17 -24 52 -73 107 -40 45 -90 103 -111 130 -51 62 -88 65 -139 10z"/>
<path d="M7694 5785 c-22 -33 -15 -45 41 -75 39 -20 60 -42 102 -105 69 -103
71 -104 89 -81 21 29 17 56 -16 105 -17 24 -30 47 -30 50 0 3 28 6 61 6 55 0
64 3 82 27 10 14 16 31 13 37 -5 7 -47 11 -114 11 -96 0 -111 3 -147 25 -50
31 -61 31 -81 0z"/>
<path d="M242 1758 c-39 -39 -172 -38 4203 -38 3658 0 4194 2 4205 15 6 8 9
19 5 25 -10 15 -8397 14 -8413 -2z"/>
<path d="M637 1284 c-4 -4 -7 -148 -7 -319 0 -257 3 -315 14 -324 9 -7 41 -11
83 -9 l68 3 5 120 5 120 95 5 95 5 0 65 0 65 -95 5 -95 5 0 60 0 60 105 5 105
5 0 65 0 65 -186 3 c-102 1 -188 -1 -192 -4z"/>
<path d="M1413 1283 c-18 -7 -18 -397 0 -474 18 -73 56 -122 120 -154 134 -65
312 -30 388 76 34 48 49 154 48 339 -1 226 3 215 -94 215 l-80 0 -5 -225 c-5
-233 -10 -258 -50 -280 -34 -18 -97 -12 -125 13 -35 30 -45 100 -41 302 2 88
-1 168 -6 178 -7 14 -21 17 -76 16 -37 0 -73 -3 -79 -6z"/>
<path d="M2387 1284 c-3 -5 -5 -152 -5 -327 1 -364 -10 -331 103 -325 l60 3 5
112 c7 168 28 173 111 27 83 -145 74 -138 169 -142 104 -5 114 3 73 60 -97
138 -143 208 -143 219 0 7 20 32 44 55 36 34 46 51 51 88 11 74 -1 128 -38
164 -57 55 -96 65 -268 70 -86 2 -159 0 -162 -4z m257 -138 c37 -15 52 -50 37
-88 -13 -34 -33 -48 -76 -51 -33 -2 -39 1 -45 23 -3 14 -4 49 -2 78 4 47 6 52
28 52 14 0 40 -6 58 -14z"/>
<path d="M3296 1281 c-8 -13 -10 -626 -2 -639 8 -14 114 -16 135 -3 12 7 13
48 9 231 -5 183 -3 220 8 208 7 -7 58 -103 113 -213 56 -110 111 -208 123
-218 18 -15 37 -17 122 -15 l101 3 0 325 0 325 -64 3 c-35 2 -68 -1 -73 -6 -5
-5 -10 -107 -11 -226 -2 -173 -4 -213 -14 -199 -7 10 -17 23 -23 30 -5 7 -10
16 -10 21 0 5 -23 51 -51 103 -28 52 -71 133 -95 180 -23 48 -50 89 -59 93
-25 9 -203 7 -209 -3z"/>
<path d="M4335 1277 c-3 -7 -4 -154 -3 -327 l3 -315 73 -3 c46 -2 79 2 88 9
11 9 14 66 14 311 0 187 -4 307 -10 319 -9 16 -22 19 -86 19 -51 0 -76 -4 -79
-13z"/>
<path d="M4887 1283 c-4 -3 -7 -35 -7 -70 l0 -63 64 0 c104 0 96 23 96 -261
l0 -249 23 -5 c13 -4 50 -5 82 -3 l60 3 7 50 c4 28 6 139 4 248 -3 140 0 199
8 205 6 4 43 9 81 12 l70 5 3 53 c2 31 -2 60 -9 68 -9 11 -55 14 -244 14 -127
0 -235 -3 -238 -7z"/>
<path d="M5752 1278 c-9 -9 -12 -69 -12 -207 0 -293 23 -362 140 -418 47 -23
69 -27 145 -27 78 0 97 3 147 27 72 35 112 94 127 187 14 85 14 405 1 431 -9
16 -22 19 -78 19 -38 0 -73 -5 -79 -11 -9 -9 -10 -61 -6 -183 7 -202 1 -255
-33 -296 -22 -25 -33 -30 -71 -30 -103 0 -113 27 -113 293 0 144 -3 206 -12
215 -7 7 -40 12 -78 12 -38 0 -71 -5 -78 -12z"/>
<path d="M6735 1281 c-11 -18 -9 -631 2 -642 6 -6 43 -9 84 -7 l74 3 3 118 3
118 26 -3 c26 -3 52 -40 127 -179 14 -26 32 -49 41 -53 9 -3 50 -6 91 -6 54 0
76 4 80 14 3 7 -26 58 -64 112 -38 55 -76 113 -85 130 -16 31 -16 31 19 65 51
49 64 79 64 152 0 80 -24 120 -95 156 -46 23 -63 26 -206 29 -111 3 -159 1
-164 -7z m244 -132 c83 -29 58 -135 -34 -141 l-40 -3 -3 78 c-3 75 -2 77 21
77 13 0 38 -5 56 -11z"/>
<path d="M7637 1283 c-4 -3 -7 -149 -7 -324 0 -280 2 -318 16 -323 9 -3 91 -6
184 -6 193 0 193 0 188 82 l-3 53 -105 5 -105 5 -3 63 c-2 45 1 62 10 63 7 0
51 1 98 2 l85 2 0 65 0 65 -95 5 -95 5 -3 53 -3 52 105 0 c118 0 116 -1 114
80 -1 59 -3 60 -198 60 -97 0 -180 -3 -183 -7z"/>
<path d="M240 175 l0 -25 4198 0 c2412 0 4203 4 4211 9 8 5 11 16 8 25 -6 15
-365 16 -4212 16 l-4205 0 0 -25z"/>
</g>
</svg>
